<?xml version="1.0" encoding="UTF-8"?>
<svg id="OBJECTS" xmlns="http://www.w3.org/2000/svg" viewBox="0 0 200 200">
  <defs>
    <style>
      .cls-1 {
        fill: #ff0004;
      }
    </style>
  </defs>
  <path class="cls-1" d="M177.65,135.05c-14.9-20.88-10.01-27.13,15.13-27.44-27.53-6.19-32.92-17.93-14.27-31.28-28.11,2.93-32.46-9.85-23.23-32.18-17.24,18.31-45.06,21.75-58.39-9.03-15.92,31.37-36.69,21.67-53.16,4.99,12.15,25.35,4.43,32.62-21.57,26.85,17.06,15.23,5.65,23.91-14.93,26.9,23.74,3.02,24.68,15,8.02,27.7,24.67.32,27.82,12.9,13.33,27.74,18.91-12.59,29.93-7.88,26.95,16.31,20.69-16.57,31.07-9.37,31.46,12.73,7.92-20.49,20.53-27.21,35.48-5.56,3.42-25.03,15.9-27.49,34.02-11.46-15.68-25.21-6.41-32.93,21.17-26.27Z"/>
</svg>