<?xml version="1.0" encoding="UTF-8"?>
<svg id="OBJECTS" xmlns="http://www.w3.org/2000/svg" viewBox="0 0 200 200">
  <defs>
    <style>
      .cls-1 {
        fill: #ff0004;
        fill-rule: evenodd;
      }
    </style>
  </defs>
  <path class="cls-1" d="M96.56,151.28c-1.11-1.39-2.77-2.19-4.55-2.19-1.57,0-3.04.61-4.14,1.73l-.68.69-.75-1.41c-1.02-1.9-2.99-3.08-5.15-3.08-1.19,0-2.34.36-3.32,1.04l-.8.55-.48-1.52c-.77-2.44-3.01-4.08-5.56-4.08-.83,0-1.63.17-2.38.51l-.89.4-.19-1.59c-.35-2.92-2.84-5.13-5.79-5.13-.46,0-.92.06-1.37.16l-.95.23.1-1.59c.1-1.6-.47-3.19-1.57-4.36-1.1-1.17-2.65-1.84-4.25-1.84h-.3s-.97.06-.97.06l.39-1.55c.41-1.61.11-3.32-.82-4.7-.93-1.38-2.41-2.29-4.06-2.51l-.97-.13.67-1.45c.7-1.51.72-3.25.06-4.77-.66-1.52-1.95-2.7-3.52-3.21l-.93-.3.93-1.3c.96-1.35,1.3-3.06.93-4.68-.37-1.62-1.42-3.01-2.87-3.81l-.85-.47,1.15-1.11c1.2-1.15,1.84-2.77,1.78-4.43-.07-1.66-.84-3.22-2.12-4.27l-.75-.62,1.33-.88c1.39-.92,2.32-2.38,2.56-4.03.24-1.64-.24-3.32-1.3-4.59l-.63-.75,1.47-.62c1.53-.64,2.72-1.91,3.26-3.49.54-1.57.38-3.3-.44-4.75l-.48-.85,1.56-.34c1.62-.35,3.03-1.38,3.84-2.83.82-1.45.98-3.18.44-4.75l-.31-.92,1.6-.04c1.66-.05,3.23-.8,4.3-2.07,1.07-1.27,1.55-2.94,1.31-4.59l-.14-.97,1.58.25c.3.05.61.07.91.07,3.14,0,5.7-2.46,5.82-5.59l.04-.97,1.5.53c.63.22,1.29.34,1.95.34,2.73,0,5.07-1.86,5.68-4.52l.22-.95,1.38.8c.89.52,1.9.79,2.93.79,2.32,0,4.42-1.38,5.35-3.5l.39-.89,1.21,1.04c1.06.91,2.41,1.41,3.8,1.41,1.94,0,3.74-.96,4.83-2.56l.55-.8,1,1.25c1.11,1.39,2.77,2.19,4.55,2.19,1.57,0,3.04-.61,4.14-1.73l.69-.69.75,1.41c1.01,1.9,2.99,3.09,5.15,3.09,1.19,0,2.34-.36,3.32-1.04l.8-.55.48,1.52c.77,2.44,3,4.08,5.56,4.08.83,0,1.63-.17,2.38-.51l.89-.4.19,1.59c.35,2.92,2.84,5.13,5.79,5.13.46,0,.92-.06,1.37-.16l.95-.23-.1,1.59c-.1,1.6.47,3.19,1.57,4.36,1.1,1.17,2.65,1.84,4.25,1.84h.3s.97-.06.97-.06l-.39,1.55c-.41,1.61-.11,3.32.82,4.7.93,1.38,2.41,2.29,4.06,2.51l.96.13-.67,1.45c-.7,1.51-.72,3.25-.06,4.77.66,1.52,1.95,2.7,3.53,3.22l.92.3-.93,1.3c-.96,1.35-1.3,3.06-.93,4.68.37,1.62,1.42,3.01,2.88,3.81l.85.47-1.15,1.11c-1.2,1.15-1.84,2.77-1.78,4.43.07,1.66.84,3.22,2.13,4.27l.75.62-1.33.88c-1.39.91-2.32,2.38-2.56,4.03-.24,1.65.24,3.32,1.31,4.59l.62.74-1.47.62c-1.53.64-2.72,1.92-3.26,3.49-.54,1.57-.38,3.3.44,4.75l.48.85-1.56.34c-1.62.35-3.03,1.38-3.84,2.83-.82,1.45-.98,3.18-.44,4.75l.31.92-1.6.04c-1.66.05-3.23.8-4.29,2.07-1.07,1.27-1.55,2.94-1.31,4.59l.14.97-1.58-.25c-.3-.05-.61-.07-.91-.07-3.14,0-5.69,2.46-5.82,5.59l-.04.97-1.51-.54c-.63-.22-1.29-.34-1.95-.34-2.73,0-5.07,1.86-5.68,4.53l-.22.95-1.38-.8c-.89-.52-1.9-.79-2.93-.79-2.32,0-4.42,1.38-5.35,3.5l-.39.89-1.21-1.04c-1.06-.91-2.41-1.41-3.8-1.41-1.94,0-3.74.96-4.83,2.56l-.55.81-1-1.25Z"/>
</svg>